#N canvas 37 58 340 230 10;
#X text 10 10 META this is the meta file for mjlib;
#X text 10 30 NAME mjlib;
#X text 10 50 AUTHOR mark williamson <mark@junklight.com>;
#X text 10 70 MAINTAINER Fred Jan Kraan <fjkraan@electrickery.nl>;
#X text 10 90 LICENSE GNU GPL;
#X text 10 110 VERSION 0.2.0;
