#N canvas 626 79 556 531 10;
#X obj 0 0 cnv 15 552 40 empty empty morse 3 12 0 18 -204280 -1 0;
#X obj 0 356 cnv 3 550 3 empty empty inlets 8 12 0 13 -228856 -1 0
;
#X obj 0 476 cnv 3 550 3 empty empty outlets 8 12 0 13 -228856 -1 0
;
#X obj 0 554 cnv 3 550 3 empty empty arguments 8 12 0 13 -228856 -1
0;
#X obj 79 484 cnv 17 3 17 empty empty 0 5 9 0 16 -228856 -162280 0
;
#X obj 79 370 cnv 17 3 50 empty empty 0 5 9 0 16 -228856 -162280 0
;
#X obj 0 588 cnv 15 552 21 empty empty empty 20 12 0 14 -233017 -33289
0;
#N canvas 240 348 428 75 Related_objects 0;
#X obj 0 0 cnv 15 425 20 empty empty empty 3 12 0 14 -204280 -1 0;
#X text 6 1 Related Objects;
#X restore 206 590 pd Related_objects;
#X obj 79 431 cnv 17 3 30 empty empty 1 5 9 0 16 -228856 -162280 0
;
#X text 107 370 bang;
#X text 107 484 bang;
#N canvas 234 413 494 344 META 0;
#X text 12 185 HELP_PATCH_AUTHORS "pd meta" information added by Jonathan
Wilkes for Pd version 0.42.;
#X text 12 165 AUTHOR Mark Williamson <mark@junklight.com>;
#X text 12 25 LICENSE GPL v2;
#X text 12 105 OUTLET_0 bang;
#X text 12 125 OUTLET_1 bang;
#X text 12 145 OUTLET_2 bang;
#X text 12 45 DESCRIPTION convert text to Morse code;
#X text 12 65 INLET_0 bang msg;
#X text 12 85 INLET_1 float symbol;
#X text 12 5 KEYWORDS control morse converter;
#X restore 503 591 pd META;
#X text 107 506 bang;
#X text 107 525 bang;
#X obj 79 507 cnv 17 3 17 empty empty 1 5 9 0 16 -228856 -162280 0
;
#X obj 79 530 cnv 17 3 17 empty empty 2 5 9 0 16 -228856 -162280 0
;
#X obj 138 312 mjlib/output~;
#X text 8 23 convert text to Morse Code;
#X obj 137 180 mjlib/morse;
#X obj 501 2 morse;
#N canvas 556 423 607 506 dotDasher 0;
#X obj 53 100 hsl 80 20 10 6000 0 0 \$0-s-fr \$0-r-fr frequency 9 9
1 10 -262144 -1 -1 0 1;
#X obj 214 28 inlet dot;
#X obj 358 28 inlet dash;
#X obj 165 313 outlet~;
#X obj 298 313 outlet speed;
#X obj 214 208 line~;
#X obj 214 124 delay 50;
#X obj 214 104 bng 15 250 50 0 empty empty empty 0 -6 0 8 -262144 -1
-1;
#X obj 358 123 delay 50;
#X obj 358 103 bng 15 250 50 0 empty empty empty 0 -6 0 8 -262144 -1
-1;
#X msg 174 164 1 1;
#X msg 214 164 0 1;
#X msg 318 164 1 1;
#X msg 358 164 0 1;
#X text 229 79 dot;
#X text 365 81 dash;
#X obj 102 191 osc~ 440;
#X floatatom 6 157 5 0 0 0 - - -, f 5;
#X obj 164 247 *~;
#X msg 6 56 906.1;
#X obj 6 29 loadbang;
#X obj 53 120 hsl 80 20 10 1000 0 0 \$0-s-sp \$0-r-sp speed 8 10 0
10 -262144 -1 -1 513 1;
#X floatatom 51 159 5 0 0 0 - - -, f 5;
#X obj 403 83 * 3;
#X msg 73 56 50;
#X obj 73 29 loadbang;
#X obj 259 52 t f f f;
#X obj 0 0 cnv 15 425 20 empty empty empty 3 12 0 14 -204280 -1 0;
#X text 6 1 Dot dash factory;
#X connect 0 0 16 0;
#X connect 0 0 17 0;
#X connect 1 0 7 0;
#X connect 2 0 9 0;
#X connect 5 0 18 1;
#X connect 6 0 11 0;
#X connect 7 0 6 0;
#X connect 7 0 10 0;
#X connect 8 0 13 0;
#X connect 9 0 8 0;
#X connect 9 0 12 0;
#X connect 10 0 5 0;
#X connect 11 0 5 0;
#X connect 12 0 5 0;
#X connect 13 0 5 0;
#X connect 16 0 18 0;
#X connect 18 0 3 0;
#X connect 19 0 0 0;
#X connect 20 0 19 0;
#X connect 21 0 22 0;
#X connect 22 0 26 0;
#X connect 23 0 8 1;
#X connect 24 0 21 0;
#X connect 25 0 24 0;
#X connect 26 0 6 1;
#X connect 26 1 23 0;
#X connect 26 2 4 0;
#X coords 0 -1 1 1 85 40 1 50 100;
#X restore 137 263 pd dotDasher;
#X obj 137 238 bng 15 250 50 0 empty empty empty 17 7 0 10 -262144
-1 -1;
#X obj 168 238 bng 15 250 50 0 empty empty empty 17 7 0 10 -262144
-1 -1;
#X obj 200 238 bng 15 250 50 0 empty empty empty 17 7 0 10 -262144
-1 -1;
#X msg 27 70 1;
#X msg 78 47 stop;
#X obj 8 95 bng 15 250 50 0 empty empty empty 0 -6 0 8 -262144 -1 -1
;
#X obj 27 93 metro 100;
#X msg 27 47 start;
#X obj 228 313 s \$0-speed;
#X obj 78 70 r \$0-speed;
#X msg 165 75 msg this is a test message;
#X msg 200 101 0;
#X msg 165 49 msg pure data morse generator;
#X text 184 370 - message clock;
#X text 107 388 msg;
#X text 184 388 - message to be send;
#X text 107 405 rewind;
#X msg 350 49 rewind;
#X text 184 405 - restarts current message \, or sends last message
again;
#X text 107 448 symbol;
#X text 184 448 - character to be send;
#X text 107 431 float;
#X text 184 431 - numberto be send;
#X msg 230 101 11;
#X text 160 484 - dot;
#X text 160 506 - dash;
#X text 160 525 - end of message;
#X text 96 565 default message;
#X connect 18 0 21 0;
#X connect 18 1 22 0;
#X connect 18 2 23 0;
#X connect 20 0 16 0;
#X connect 20 0 16 1;
#X connect 20 1 29 0;
#X connect 21 0 20 0;
#X connect 22 0 20 1;
#X connect 24 0 27 0;
#X connect 25 0 27 0;
#X connect 26 0 18 0;
#X connect 27 0 26 0;
#X connect 28 0 24 0;
#X connect 30 0 27 1;
#X connect 31 0 18 0;
#X connect 32 0 18 1;
#X connect 33 0 18 0;
#X connect 38 0 18 0;
#X connect 44 0 18 1;
