#N canvas 502 87 559 457 10;
#X obj 0 0 cnv 15 552 40 empty empty n2m 3 12 0 18 -204280 -1 0;
#X obj 0 314 cnv 3 550 3 empty empty inlets 8 12 0 13 -228856 -1 0
;
#X obj 0 357 cnv 3 550 3 empty empty outlets 8 12 0 13 -228856 -1 0
;
#X obj 0 394 cnv 3 550 3 empty empty arguments 8 12 0 13 -228856 -1
0;
#X obj 79 366 cnv 17 3 17 empty empty 0 5 9 0 16 -228856 -162280 0
;
#X obj 79 328 cnv 17 3 17 empty empty 0 5 9 0 16 -228856 -162280 0
;
#X obj 0 421 cnv 15 552 21 empty empty empty 20 12 0 14 -233017 -33289
0;
#N canvas 240 348 428 75 Related_objects 0;
#X obj 0 0 cnv 15 425 20 empty empty empty 3 12 0 14 -204280 -1 0;
#X text 6 1 Related Objects;
#X restore 206 423 pd Related_objects;
#N canvas 758 192 494 344 META 0;
#X text 12 125 HELP_PATCH_AUTHORS "pd meta" information added by Jonathan
Wilkes for Pd version 0.42.;
#X text 12 25 LICENSE GPL v2;
#X text 12 5 KEYWORDS control conversion MIDI;
#X text 12 45 DESCRIPTION note to midi;
#X text 12 65 INLET_0 note;
#X text 12 105 AUTHOR Mark Williamson <mark@junklight.com>;
#X text 12 85 OUTLET_0 float;
#X restore 503 423 pd META;
#X text 8 23 note list to midi, f 78;
#X obj 524 4 n2m;
#X msg 174 48 note c6;
#X msg 195 114 note D;
#X msg 200 136 note 7;
#N canvas 941 222 433 300 mtos 0;
#X obj 70 31 inlet;
#X obj 71 267 outlet~;
#X obj 70 132 unpack f f f;
#X floatatom 70 205 5 0 0 0 - - -, f 5;
#X floatatom 110 205 5 0 0 0 - - -, f 5;
#X floatatom 151 205 5 0 0 0 - - -, f 5;
#X obj 151 166 mtof;
#X obj 110 166 mtof;
#X obj 70 166 mtof;
#X msg 187 143 0;
#X obj 70 228 osc~;
#X obj 70 94 t l b;
#X obj 110 228 osc~;
#X obj 151 228 osc~;
#X obj 187 120 delay 1000;
#X obj 164 67 t l;
#X obj 144 31 inlet;
#X obj 238 267 outlet;
#X obj 187 166 t f f f b;
#X obj 70 67 list prepend;
#X obj 0 0 cnv 15 425 20 empty empty empty 3 12 0 14 -204280 -1 0;
#X text 6 1 midi to sound;
#X connect 0 0 19 0;
#X connect 2 0 8 0;
#X connect 2 1 7 0;
#X connect 2 2 6 0;
#X connect 3 0 10 0;
#X connect 4 0 12 0;
#X connect 5 0 13 0;
#X connect 6 0 5 0;
#X connect 7 0 4 0;
#X connect 8 0 3 0;
#X connect 9 0 18 0;
#X connect 10 0 1 0;
#X connect 11 0 2 0;
#X connect 11 1 14 0;
#X connect 12 0 1 0;
#X connect 13 0 1 0;
#X connect 14 0 9 0;
#X connect 15 0 19 1;
#X connect 16 0 19 1;
#X connect 18 0 3 0;
#X connect 18 1 4 0;
#X connect 18 2 5 0;
#X connect 18 3 17 0;
#X connect 19 0 11 0;
#X connect 19 0 15 0;
#X restore 174 240 pd mtos;
#X obj 227 240 bng 15 250 50 0 empty empty empty 17 7 0 10 -262144
-1 -1;
#X obj 174 266 mjlib/output~;
#X obj 174 189 mjlib/n2m;
#X msg 181 70 note C4 E4 G4;
#X msg 188 92 note C4 D#4 G4;
#X text 107 328 note;
#X text 162 328 - list of note names;
#X text 107 366 float;
#X text 160 366 - midi note numbers;
#X obj 261 238 print;
#X connect 11 0 17 0;
#X connect 12 0 17 0;
#X connect 13 0 17 0;
#X connect 14 0 16 0;
#X connect 14 0 16 1;
#X connect 14 1 15 0;
#X connect 15 0 14 1;
#X connect 17 0 14 0;
#X connect 17 0 24 0;
#X connect 18 0 17 0;
#X connect 19 0 17 0;
